<mxfile host="app.diagrams.net" modified="2023-04-21T13:43:17.681Z" agent="Mozilla/5.0 (Windows NT 10.0; Win64; x64) AppleWebKit/537.36 (KHTML, like Gecko) Chrome/112.0.0.0 Safari/537.36 Edg/112.0.1722.48" etag="TWRcEhTI5rlu0XL-ety1" version="21.1.8" type="github">
  <diagram name="第 1 页" id="wDEmEysUkERY-WJwUWTv">
    <mxGraphModel dx="1290" dy="581" grid="1" gridSize="10" guides="1" tooltips="1" connect="1" arrows="1" fold="1" page="1" pageScale="1" pageWidth="827" pageHeight="1169" math="0" shadow="0">
      <root>
        <mxCell id="0" />
        <mxCell id="1" parent="0" />
        <mxCell id="-VARQE8dwNiFnwjYgjgh-1" value="" style="ellipse;whiteSpace=wrap;html=1;" vertex="1" parent="1">
          <mxGeometry x="130" y="180" width="90" height="60" as="geometry" />
        </mxCell>
        <mxCell id="-VARQE8dwNiFnwjYgjgh-3" value="" style="ellipse;whiteSpace=wrap;html=1;" vertex="1" parent="1">
          <mxGeometry x="270" y="180" width="90" height="60" as="geometry" />
        </mxCell>
        <mxCell id="-VARQE8dwNiFnwjYgjgh-4" value="" style="ellipse;whiteSpace=wrap;html=1;" vertex="1" parent="1">
          <mxGeometry x="400" y="180" width="90" height="60" as="geometry" />
        </mxCell>
        <mxCell id="-VARQE8dwNiFnwjYgjgh-5" value="学号" style="text;html=1;strokeColor=none;fillColor=none;align=center;verticalAlign=middle;whiteSpace=wrap;rounded=0;" vertex="1" parent="1">
          <mxGeometry x="145" y="195" width="60" height="30" as="geometry" />
        </mxCell>
        <mxCell id="-VARQE8dwNiFnwjYgjgh-6" value="姓名" style="text;html=1;strokeColor=none;fillColor=none;align=center;verticalAlign=middle;whiteSpace=wrap;rounded=0;" vertex="1" parent="1">
          <mxGeometry x="285" y="195" width="60" height="30" as="geometry" />
        </mxCell>
        <mxCell id="-VARQE8dwNiFnwjYgjgh-9" value="密码" style="text;html=1;strokeColor=none;fillColor=none;align=center;verticalAlign=middle;whiteSpace=wrap;rounded=0;" vertex="1" parent="1">
          <mxGeometry x="415" y="195" width="60" height="30" as="geometry" />
        </mxCell>
        <mxCell id="-VARQE8dwNiFnwjYgjgh-10" value="" style="rounded=0;whiteSpace=wrap;html=1;" vertex="1" parent="1">
          <mxGeometry x="255" y="300" width="120" height="60" as="geometry" />
        </mxCell>
        <mxCell id="-VARQE8dwNiFnwjYgjgh-11" value="学生" style="text;html=1;strokeColor=none;fillColor=none;align=center;verticalAlign=middle;whiteSpace=wrap;rounded=0;" vertex="1" parent="1">
          <mxGeometry x="285" y="315" width="60" height="30" as="geometry" />
        </mxCell>
        <mxCell id="-VARQE8dwNiFnwjYgjgh-12" value="" style="rhombus;whiteSpace=wrap;html=1;" vertex="1" parent="1">
          <mxGeometry x="265" y="420" width="100" height="80" as="geometry" />
        </mxCell>
        <mxCell id="-VARQE8dwNiFnwjYgjgh-13" value="" style="rounded=0;whiteSpace=wrap;html=1;" vertex="1" parent="1">
          <mxGeometry x="255" y="540" width="120" height="60" as="geometry" />
        </mxCell>
        <mxCell id="-VARQE8dwNiFnwjYgjgh-14" value="课程&lt;span style=&quot;white-space: pre;&quot;&gt;	&lt;/span&gt;" style="text;html=1;strokeColor=none;fillColor=none;align=center;verticalAlign=middle;whiteSpace=wrap;rounded=0;" vertex="1" parent="1">
          <mxGeometry x="285" y="555" width="60" height="30" as="geometry" />
        </mxCell>
        <mxCell id="-VARQE8dwNiFnwjYgjgh-15" value="选择课程" style="text;html=1;strokeColor=none;fillColor=none;align=center;verticalAlign=middle;whiteSpace=wrap;rounded=0;" vertex="1" parent="1">
          <mxGeometry x="285" y="445" width="60" height="30" as="geometry" />
        </mxCell>
        <mxCell id="-VARQE8dwNiFnwjYgjgh-16" value="" style="ellipse;whiteSpace=wrap;html=1;" vertex="1" parent="1">
          <mxGeometry x="200" y="700" width="90" height="60" as="geometry" />
        </mxCell>
        <mxCell id="-VARQE8dwNiFnwjYgjgh-17" value="" style="ellipse;whiteSpace=wrap;html=1;" vertex="1" parent="1">
          <mxGeometry x="340" y="700" width="90" height="60" as="geometry" />
        </mxCell>
        <mxCell id="-VARQE8dwNiFnwjYgjgh-19" value="课名" style="text;html=1;strokeColor=none;fillColor=none;align=center;verticalAlign=middle;whiteSpace=wrap;rounded=0;" vertex="1" parent="1">
          <mxGeometry x="215" y="715" width="60" height="30" as="geometry" />
        </mxCell>
        <mxCell id="-VARQE8dwNiFnwjYgjgh-20" value="学分" style="text;html=1;strokeColor=none;fillColor=none;align=center;verticalAlign=middle;whiteSpace=wrap;rounded=0;" vertex="1" parent="1">
          <mxGeometry x="355" y="715" width="60" height="30" as="geometry" />
        </mxCell>
        <mxCell id="-VARQE8dwNiFnwjYgjgh-22" value="" style="rhombus;whiteSpace=wrap;html=1;" vertex="1" parent="1">
          <mxGeometry x="475" y="530" width="115" height="80" as="geometry" />
        </mxCell>
        <mxCell id="-VARQE8dwNiFnwjYgjgh-23" value="" style="rounded=0;whiteSpace=wrap;html=1;" vertex="1" parent="1">
          <mxGeometry x="660" y="540" width="120" height="60" as="geometry" />
        </mxCell>
        <mxCell id="-VARQE8dwNiFnwjYgjgh-24" value="选择课程" style="text;html=1;strokeColor=none;fillColor=none;align=center;verticalAlign=middle;whiteSpace=wrap;rounded=0;" vertex="1" parent="1">
          <mxGeometry x="503" y="555" width="60" height="30" as="geometry" />
        </mxCell>
        <mxCell id="-VARQE8dwNiFnwjYgjgh-26" value="" style="endArrow=none;html=1;rounded=0;exitX=1;exitY=0.5;exitDx=0;exitDy=0;entryX=0;entryY=0.5;entryDx=0;entryDy=0;" edge="1" parent="1" source="-VARQE8dwNiFnwjYgjgh-13" target="-VARQE8dwNiFnwjYgjgh-22">
          <mxGeometry width="50" height="50" relative="1" as="geometry">
            <mxPoint x="390" y="560" as="sourcePoint" />
            <mxPoint x="440" y="510" as="targetPoint" />
          </mxGeometry>
        </mxCell>
        <mxCell id="-VARQE8dwNiFnwjYgjgh-27" value="" style="endArrow=none;html=1;rounded=0;exitX=1;exitY=0.5;exitDx=0;exitDy=0;" edge="1" parent="1" source="-VARQE8dwNiFnwjYgjgh-22" target="-VARQE8dwNiFnwjYgjgh-23">
          <mxGeometry width="50" height="50" relative="1" as="geometry">
            <mxPoint x="390" y="560" as="sourcePoint" />
            <mxPoint x="440" y="510" as="targetPoint" />
          </mxGeometry>
        </mxCell>
        <mxCell id="-VARQE8dwNiFnwjYgjgh-29" value="" style="endArrow=none;html=1;rounded=0;exitX=0.5;exitY=0;exitDx=0;exitDy=0;entryX=0.5;entryY=1;entryDx=0;entryDy=0;" edge="1" parent="1" source="-VARQE8dwNiFnwjYgjgh-16" target="-VARQE8dwNiFnwjYgjgh-13">
          <mxGeometry width="50" height="50" relative="1" as="geometry">
            <mxPoint x="240" y="650" as="sourcePoint" />
            <mxPoint x="290" y="600" as="targetPoint" />
          </mxGeometry>
        </mxCell>
        <mxCell id="-VARQE8dwNiFnwjYgjgh-30" value="" style="endArrow=none;html=1;rounded=0;entryX=0.5;entryY=1;entryDx=0;entryDy=0;exitX=0.5;exitY=0;exitDx=0;exitDy=0;" edge="1" parent="1" source="-VARQE8dwNiFnwjYgjgh-17" target="-VARQE8dwNiFnwjYgjgh-13">
          <mxGeometry width="50" height="50" relative="1" as="geometry">
            <mxPoint x="320" y="690" as="sourcePoint" />
            <mxPoint x="370" y="640" as="targetPoint" />
          </mxGeometry>
        </mxCell>
        <mxCell id="-VARQE8dwNiFnwjYgjgh-31" value="" style="endArrow=none;html=1;rounded=0;entryX=0.5;entryY=1;entryDx=0;entryDy=0;exitX=0.5;exitY=0;exitDx=0;exitDy=0;" edge="1" parent="1" source="-VARQE8dwNiFnwjYgjgh-13" target="-VARQE8dwNiFnwjYgjgh-12">
          <mxGeometry width="50" height="50" relative="1" as="geometry">
            <mxPoint x="180" y="590" as="sourcePoint" />
            <mxPoint x="230" y="540" as="targetPoint" />
          </mxGeometry>
        </mxCell>
        <mxCell id="-VARQE8dwNiFnwjYgjgh-32" value="" style="endArrow=none;html=1;rounded=0;entryX=0.5;entryY=1;entryDx=0;entryDy=0;exitX=0.5;exitY=0;exitDx=0;exitDy=0;" edge="1" parent="1" source="-VARQE8dwNiFnwjYgjgh-12" target="-VARQE8dwNiFnwjYgjgh-10">
          <mxGeometry width="50" height="50" relative="1" as="geometry">
            <mxPoint x="100" y="530" as="sourcePoint" />
            <mxPoint x="150" y="480" as="targetPoint" />
          </mxGeometry>
        </mxCell>
        <mxCell id="-VARQE8dwNiFnwjYgjgh-33" value="" style="endArrow=none;html=1;rounded=0;exitX=0.5;exitY=0;exitDx=0;exitDy=0;" edge="1" parent="1" source="-VARQE8dwNiFnwjYgjgh-10">
          <mxGeometry width="50" height="50" relative="1" as="geometry">
            <mxPoint x="150" y="340" as="sourcePoint" />
            <mxPoint x="190" y="240" as="targetPoint" />
          </mxGeometry>
        </mxCell>
        <mxCell id="-VARQE8dwNiFnwjYgjgh-34" value="" style="endArrow=none;html=1;rounded=0;exitX=0.5;exitY=0;exitDx=0;exitDy=0;" edge="1" parent="1" source="-VARQE8dwNiFnwjYgjgh-10">
          <mxGeometry width="50" height="50" relative="1" as="geometry">
            <mxPoint x="110" y="430" as="sourcePoint" />
            <mxPoint x="315" y="240" as="targetPoint" />
          </mxGeometry>
        </mxCell>
        <mxCell id="-VARQE8dwNiFnwjYgjgh-35" value="" style="endArrow=none;html=1;rounded=0;exitX=0.5;exitY=0;exitDx=0;exitDy=0;entryX=0.5;entryY=1;entryDx=0;entryDy=0;" edge="1" parent="1" source="-VARQE8dwNiFnwjYgjgh-10" target="-VARQE8dwNiFnwjYgjgh-4">
          <mxGeometry width="50" height="50" relative="1" as="geometry">
            <mxPoint x="450" y="330" as="sourcePoint" />
            <mxPoint x="500" y="280" as="targetPoint" />
          </mxGeometry>
        </mxCell>
        <mxCell id="-VARQE8dwNiFnwjYgjgh-36" value="" style="ellipse;whiteSpace=wrap;html=1;" vertex="1" parent="1">
          <mxGeometry x="35" y="430" width="110" height="60" as="geometry" />
        </mxCell>
        <mxCell id="-VARQE8dwNiFnwjYgjgh-37" value="成绩" style="text;html=1;strokeColor=none;fillColor=none;align=center;verticalAlign=middle;whiteSpace=wrap;rounded=0;" vertex="1" parent="1">
          <mxGeometry x="60" y="445" width="60" height="30" as="geometry" />
        </mxCell>
        <mxCell id="-VARQE8dwNiFnwjYgjgh-38" value="" style="endArrow=none;html=1;rounded=0;exitX=1;exitY=0.5;exitDx=0;exitDy=0;entryX=0;entryY=0.5;entryDx=0;entryDy=0;" edge="1" parent="1" source="-VARQE8dwNiFnwjYgjgh-36" target="-VARQE8dwNiFnwjYgjgh-12">
          <mxGeometry width="50" height="50" relative="1" as="geometry">
            <mxPoint x="190" y="500" as="sourcePoint" />
            <mxPoint x="260" y="460" as="targetPoint" />
          </mxGeometry>
        </mxCell>
        <mxCell id="-VARQE8dwNiFnwjYgjgh-39" value="M" style="text;html=1;strokeColor=none;fillColor=none;align=center;verticalAlign=middle;whiteSpace=wrap;rounded=0;" vertex="1" parent="1">
          <mxGeometry x="305" y="390" width="60" height="30" as="geometry" />
        </mxCell>
        <mxCell id="-VARQE8dwNiFnwjYgjgh-40" value="M" style="text;html=1;strokeColor=none;fillColor=none;align=center;verticalAlign=middle;whiteSpace=wrap;rounded=0;" vertex="1" parent="1">
          <mxGeometry x="400" y="540" width="60" height="30" as="geometry" />
        </mxCell>
        <mxCell id="-VARQE8dwNiFnwjYgjgh-42" value="N" style="text;html=1;strokeColor=none;fillColor=none;align=center;verticalAlign=middle;whiteSpace=wrap;rounded=0;" vertex="1" parent="1">
          <mxGeometry x="305" y="500" width="60" height="30" as="geometry" />
        </mxCell>
        <mxCell id="-VARQE8dwNiFnwjYgjgh-43" value="1" style="text;html=1;strokeColor=none;fillColor=none;align=center;verticalAlign=middle;whiteSpace=wrap;rounded=0;" vertex="1" parent="1">
          <mxGeometry x="590" y="540" width="60" height="30" as="geometry" />
        </mxCell>
        <mxCell id="-VARQE8dwNiFnwjYgjgh-44" value="教师" style="text;html=1;strokeColor=none;fillColor=none;align=center;verticalAlign=middle;whiteSpace=wrap;rounded=0;" vertex="1" parent="1">
          <mxGeometry x="690" y="555" width="60" height="30" as="geometry" />
        </mxCell>
        <mxCell id="-VARQE8dwNiFnwjYgjgh-46" value="" style="ellipse;whiteSpace=wrap;html=1;" vertex="1" parent="1">
          <mxGeometry x="530" y="700" width="90" height="60" as="geometry" />
        </mxCell>
        <mxCell id="-VARQE8dwNiFnwjYgjgh-47" value="" style="ellipse;whiteSpace=wrap;html=1;" vertex="1" parent="1">
          <mxGeometry x="670" y="700" width="90" height="60" as="geometry" />
        </mxCell>
        <mxCell id="-VARQE8dwNiFnwjYgjgh-48" value="" style="ellipse;whiteSpace=wrap;html=1;" vertex="1" parent="1">
          <mxGeometry x="800" y="700" width="90" height="60" as="geometry" />
        </mxCell>
        <mxCell id="-VARQE8dwNiFnwjYgjgh-49" value="工号" style="text;html=1;strokeColor=none;fillColor=none;align=center;verticalAlign=middle;whiteSpace=wrap;rounded=0;" vertex="1" parent="1">
          <mxGeometry x="545" y="715" width="60" height="30" as="geometry" />
        </mxCell>
        <mxCell id="-VARQE8dwNiFnwjYgjgh-50" value="姓名" style="text;html=1;strokeColor=none;fillColor=none;align=center;verticalAlign=middle;whiteSpace=wrap;rounded=0;" vertex="1" parent="1">
          <mxGeometry x="685" y="715" width="60" height="30" as="geometry" />
        </mxCell>
        <mxCell id="-VARQE8dwNiFnwjYgjgh-51" value="密码" style="text;html=1;strokeColor=none;fillColor=none;align=center;verticalAlign=middle;whiteSpace=wrap;rounded=0;" vertex="1" parent="1">
          <mxGeometry x="815" y="715" width="60" height="30" as="geometry" />
        </mxCell>
        <mxCell id="-VARQE8dwNiFnwjYgjgh-52" value="" style="endArrow=none;html=1;rounded=0;entryX=0.5;entryY=1;entryDx=0;entryDy=0;exitX=1;exitY=0;exitDx=0;exitDy=0;" edge="1" parent="1" source="-VARQE8dwNiFnwjYgjgh-46" target="-VARQE8dwNiFnwjYgjgh-23">
          <mxGeometry width="50" height="50" relative="1" as="geometry">
            <mxPoint x="600" y="680" as="sourcePoint" />
            <mxPoint x="650" y="630" as="targetPoint" />
          </mxGeometry>
        </mxCell>
        <mxCell id="-VARQE8dwNiFnwjYgjgh-53" value="" style="endArrow=none;html=1;rounded=0;exitX=0.5;exitY=0;exitDx=0;exitDy=0;" edge="1" parent="1" source="-VARQE8dwNiFnwjYgjgh-47">
          <mxGeometry width="50" height="50" relative="1" as="geometry">
            <mxPoint x="700" y="700" as="sourcePoint" />
            <mxPoint x="720" y="600" as="targetPoint" />
          </mxGeometry>
        </mxCell>
        <mxCell id="-VARQE8dwNiFnwjYgjgh-54" value="" style="endArrow=none;html=1;rounded=0;exitX=0.5;exitY=0;exitDx=0;exitDy=0;" edge="1" parent="1" source="-VARQE8dwNiFnwjYgjgh-48">
          <mxGeometry width="50" height="50" relative="1" as="geometry">
            <mxPoint x="770" y="690" as="sourcePoint" />
            <mxPoint x="720" y="600" as="targetPoint" />
          </mxGeometry>
        </mxCell>
      </root>
    </mxGraphModel>
  </diagram>
</mxfile>
